<?xml version="1.0" encoding="UTF-8"?>
<svg id="logo" xmlns="http://www.w3.org/2000/svg" version="1.1" viewBox="0 0 468 100.4">
  <!-- Generator: Adobe Illustrator 29.0.1, SVG Export Plug-In . SVG Version: 2.1.0 Build 192)  -->
  <path d="M11.7,56.5v18H3.3V26h18.5c5.4,0,9.7,1.4,12.9,4.2,3.2,2.8,4.8,6.6,4.8,11.2s-1.6,8.5-4.7,11.1c-3.1,2.6-7.5,4-13.1,4h-10ZM11.7,49.7h10.1c3,0,5.3-.7,6.9-2.1,1.6-1.4,2.4-3.4,2.4-6.1s-.8-4.7-2.4-6.3c-1.6-1.6-3.8-2.4-6.6-2.4h-10.4v16.9Z"/>
  <path d="M55.3,67.7h22v6.7h-30.4V26h8.4v41.7Z"/>
  <path d="M111.5,63.2h-18.8l-3.9,11.3h-8.8l18.3-48.5h7.6l18.3,48.5h-8.8l-4-11.3ZM95.1,56.4h14l-7-20.1-7,20.1Z"/>
  <path d="M166.7,58.7c-.5,5.2-2.4,9.2-5.7,12.1-3.3,2.9-7.8,4.3-13.3,4.3s-7.3-.9-10.2-2.7c-2.9-1.8-5.2-4.4-6.8-7.8s-2.4-7.3-2.5-11.7v-4.5c0-4.6.8-8.6,2.4-12.1,1.6-3.5,3.9-6.2,7-8.1,3-1.9,6.5-2.8,10.5-2.8s9.7,1.4,12.9,4.3c3.3,2.9,5.2,7,5.7,12.3h-8.4c-.4-3.5-1.4-6-3-7.5-1.6-1.5-4-2.3-7.2-2.3s-6.5,1.3-8.4,4c-2,2.7-3,6.6-3,11.8v4.3c0,5.2.9,9.2,2.8,12,1.9,2.8,4.6,4.1,8.2,4.1s5.8-.7,7.5-2.2,2.7-4,3.2-7.4h8.4Z"/>
  <path d="M202.5,52.8h-19.9v14.9h23.3v6.7h-31.7V26h31.5v6.8h-23v13.4h19.9v6.7Z"/>
  <path d="M251.2,74.5h-8.4v-21.5h-21.7v21.5h-8.4V26h8.4v20.2h21.7v-20.2h8.4v48.5Z"/>
  <path d="M299.8,51.5c0,4.7-.8,8.9-2.5,12.5-1.6,3.6-4,6.3-7,8.3-3.1,1.9-6.6,2.9-10.5,2.9s-7.4-1-10.5-2.9-5.4-4.7-7.1-8.2c-1.7-3.5-2.5-7.6-2.5-12.3v-2.7c0-4.7.8-8.9,2.5-12.5,1.7-3.6,4-6.4,7.1-8.3,3.1-1.9,6.6-2.9,10.5-2.9s7.4.9,10.5,2.8c3.1,1.9,5.4,4.6,7.1,8.2,1.7,3.6,2.5,7.7,2.5,12.4v2.7ZM291.4,49c0-5.4-1-9.5-3-12.3s-4.9-4.3-8.6-4.3-6.5,1.4-8.5,4.3c-2.1,2.9-3.1,6.9-3.1,12.1v2.8c0,5.3,1,9.4,3.1,12.3,2.1,2.9,5,4.4,8.6,4.4s6.6-1.4,8.6-4.3c2-2.8,3-7,3-12.4v-2.5Z"/>
  <path d="M316.7,67.7h22v6.7h-30.4V26h8.4v41.7Z"/>
  <path d="M345.1,74.5V26h14.3c4.3,0,8.1,1,11.4,2.9,3.3,1.9,5.9,4.6,7.7,8.1,1.8,3.5,2.7,7.5,2.7,12v2.4c0,4.6-.9,8.6-2.7,12.1-1.8,3.5-4.4,6.2-7.8,8.1-3.4,1.9-7.3,2.8-11.6,2.8h-13.9ZM353.5,32.8v34.9h5.5c4.4,0,7.8-1.4,10.2-4.1,2.4-2.8,3.6-6.7,3.6-11.9v-2.7c0-5.3-1.1-9.3-3.4-12-2.3-2.8-5.6-4.2-10-4.2h-5.9Z"/>
  <path d="M418,52.8h-19.9v14.9h23.3v6.7h-31.7V26h31.5v6.8h-23v13.4h19.9v6.7Z"/>
  <path d="M446,55.8h-9.4v18.6h-8.4V26h17c5.6,0,9.9,1.3,12.9,3.8,3,2.5,4.6,6.1,4.6,10.9s-.8,6-2.3,8.1c-1.6,2.2-3.7,3.9-6.5,5l10.9,20.2v.4h-9l-9.7-18.6ZM436.6,49h8.7c2.8,0,5.1-.7,6.7-2.1s2.4-3.4,2.4-5.9-.7-4.6-2.2-6c-1.5-1.4-3.7-2.2-6.6-2.2h-8.9v16.2Z"/>
</svg>