<?xml version="1.0" encoding="UTF-8"?><svg id="placeholder" xmlns="http://www.w3.org/2000/svg" viewBox="0 0 108 162"><defs><style>.cls-1{fill:#d9dce4;}.cls-2{fill:#fad884;}.cls-3{fill:#272a30;}.cls-4{fill:#aedd84;}.cls-5{fill:#91c777;}.cls-6{fill:#e5b468;}.cls-7{fill:#2f3131;}.cls-8{fill:#f5f7fb;}</style></defs><rect id="background" class="cls-3" width="108" height="162"/><g id="frame"><g id="frame-2"><rect class="cls-8" x="24.2" y="61.2" width="59.5" height="39.5"/><path class="cls-7" d="M83.5,61.5v39H24.5V61.5h59m.5-.5H24v40h60V61h0Z"/></g><g id="shadow"><path class="cls-1" d="M24.5,81s2.3-18.1,28.9-18.1,30.1,18.1,30.1,18.1v-19.6H24.5v19.6Z"/></g><g id="border"><path class="cls-7" d="M83.5,61.5v39H24.5V61.5h59m.5-.5H24v40h60V61h0Z"/></g></g><g id="mountain_big"><g id="mountain"><polygon class="cls-4" points="36.3 100.8 62.5 74.5 83.6 95.6 83.6 100.8 36.3 100.8"/><path class="cls-7" d="M62.5,74.9l20.9,20.9v4.8H36.9l25.6-25.7m0-.7l-26.8,26.8h48.2v-5.5l-21.4-21.3h0Z"/></g><g id="shadow-2"><path class="cls-5" d="M36.9,100.5l4.4-4.4s27,3,30.2-2.1c3.3-5.1-12-16.2-12-16.2l2.9-2.9,20.9,20.9v4.7H36.9Z"/></g></g><g id="mountain_small"><g id="mountain-2"><polygon class="cls-4" points="40.1 86.3 54.4 100.6 25.6 100.7 40.1 86.3"/><path class="cls-7" d="M40.1,86.6l13.7,13.7-27.6,.1,13.9-13.8m0-.7l-15.1,15.1,30-.1-14.9-15h0Z"/></g><g id="shadow-3"><path class="cls-5" d="M26.2,100.5l9-9s-3.7,6.4,2.3,5.1c7.4-1.6,6.4-6.2,6.4-6.2l10,9.9-27.7,.2Z"/></g></g><g id="sun"><g id="sun-2"><circle class="cls-2" cx="41" cy="75" r="3.8"/><path class="cls-7" d="M41,71.5c1.9,0,3.5,1.6,3.5,3.5s-1.6,3.5-3.5,3.5-3.5-1.6-3.5-3.5,1.6-3.5,3.5-3.5m0-.5c-2.2,0-4,1.8-4,4s1.8,4,4,4,4-1.8,4-4-1.8-4-4-4h0Z"/></g><g id="shadow-4"><path class="cls-6" d="M37.5,75c0,1.9,1.6,3.5,3.5,3.5s3.5-1.6,3.5-3.5-1.6-3.5-3.5-3.5c-1,0,5.6,.7,1.5,5.2-4.2,2.7-5-2.6-5-1.7Z"/></g></g></svg>