<svg id="Layer_1" data-name="Layer 1" xmlns="http://www.w3.org/2000/svg" viewBox="0 0 64 64"><defs><style>.cls-1{fill:#fff;}.cls-2{fill:#231f20;}</style></defs><rect class="cls-1" x="2" y="2" width="60" height="60"/><path class="cls-2" d="M60,4V60H4V4H60m4-4H0V64H64V0Z"/><rect x="9" y="46" width="6" height="8"/><rect x="9" y="10" width="6" height="32"/><rect x="29" y="46" width="6" height="8"/><rect x="29" y="10" width="6" height="32"/><rect x="19" y="46" width="6" height="8"/><rect x="19" y="10" width="6" height="8"/><rect x="19" y="22" width="6" height="20"/><rect x="39" y="46" width="6" height="8"/><rect x="39" y="10" width="6" height="8"/><rect x="39" y="22" width="6" height="20"/><rect x="49" y="46" width="6" height="8"/><rect x="49" y="10" width="6" height="8"/><rect x="49" y="22" width="6" height="20"/></svg>