<?xml version="1.0" encoding="UTF-8"?><svg id="Layer_1" xmlns="http://www.w3.org/2000/svg" viewBox="0 0 32 31.05"><defs><style>.cls-1{fill:#fff;}</style></defs><path class="cls-1" d="M16,15c-2.2,0-4-.7-5.4-2.1s-2.1-3.2-2.1-5.4,.7-4,2.1-5.4c1.4-1.4,3.2-2.1,5.4-2.1s4,.7,5.4,2.1c1.4,1.4,2.1,3.2,2.1,5.4s-.7,4-2.1,5.4-3.2,2.1-5.4,2.1ZM0,31.05v-4.7c0-1.27,.32-2.35,.95-3.25,.63-.9,1.45-1.58,2.45-2.05,2.23-1,4.38-1.75,6.43-2.25,2.05-.5,4.11-.75,6.17-.75s4.12,.26,6.15,.77c2.03,.52,4.17,1.26,6.4,2.23,1.03,.47,1.87,1.15,2.5,2.05,.63,.9,.95,1.98,.95,3.25v4.7H0Zm3-3H29v-1.7c0-.53-.16-1.04-.47-1.53-.32-.48-.71-.84-1.17-1.08-2.13-1.03-4.08-1.74-5.85-2.12-1.77-.38-3.6-.57-5.5-.57s-3.75,.19-5.55,.58c-1.8,.38-3.75,1.09-5.85,2.12-.47,.23-.85,.59-1.15,1.08-.3,.48-.45,.99-.45,1.52v1.7ZM16,12c1.3,0,2.38-.42,3.23-1.27,.85-.85,1.27-1.93,1.27-3.23s-.43-2.38-1.27-3.23c-.85-.85-1.92-1.28-3.23-1.28s-2.38,.43-3.23,1.27c-.85,.85-1.27,1.93-1.27,3.23s.43,2.38,1.27,3.23,1.92,1.27,3.23,1.27Z"/></svg>