<?xml version="1.0" encoding="UTF-8"?><svg id="Layer_1" xmlns="http://www.w3.org/2000/svg" viewBox="0 0 41.4 41.45"><defs><style>.cls-1{fill:#fff;}</style></defs><path class="cls-1" d="M3,41.45c-.8,0-1.5-.3-2.1-.9-.6-.6-.9-1.3-.9-2.1V8.45c0-.8,.3-1.5,.9-2.1,.6-.6,1.3-.9,2.1-.9H23.25l-3,3H3v30h30V21.05l3-3v20.4c0,.8-.3,1.5-.9,2.1-.6,.6-1.3,.9-2.1,.9H3ZM27.1,5.85l2.15,2.1-14.25,14.2v4.3h4.25l14.3-14.3,2.1,2.1-15.15,15.2H12v-8.5L27.1,5.85Zm8.55,8.4L27.1,5.85,32.1,.85c.57-.57,1.27-.85,2.12-.85s1.56,.3,2.12,.9l4.2,4.25c.57,.6,.85,1.31,.85,2.12s-.3,1.51-.9,2.07l-4.85,4.9Z"/></svg>