<?xml version="1.0" encoding="UTF-8"?><svg id="Layer_1" xmlns="http://www.w3.org/2000/svg" viewBox="0 0 40 40"><defs><style>.cls-1{fill:#fff;}</style></defs><path class="cls-1" d="M2,36.9V12.3c-.47-.07-.92-.4-1.35-1s-.65-1.25-.65-1.95V3C0,2.23,.3,1.54,.9,.93c.6-.62,1.3-.93,2.1-.93H37c.77,0,1.46,.31,2.08,.93,.62,.62,.92,1.31,.92,2.07v6.35c0,.7-.22,1.35-.65,1.95-.43,.6-.88,.93-1.35,1v24.6c0,.77-.31,1.48-.92,2.12-.62,.65-1.31,.97-2.08,.97H5c-.8,0-1.5-.33-2.1-.97-.6-.65-.9-1.36-.9-2.12ZM5,12.35v24.65h30V12.35H5Zm32-3V3H3v6.35H37ZM14,22.85h12v-3H14v3Zm-9,14.15v0Z"/></svg>