<?xml version="1.0" encoding="UTF-8"?><svg id="movie" xmlns="http://www.w3.org/2000/svg" viewBox="0 0 42 42"><defs><style>.cls-1{fill:#9a9a9a;fill-rule:evenodd;}</style></defs><path class="cls-1" d="M3,0H39c.8,0,1.56,.32,2.12,.88s.88,1.33,.88,2.12V39c0,.8-.32,1.56-.88,2.12s-1.33,.88-2.12,.88H3c-.8,0-1.56-.32-2.12-.88s-.88-1.33-.88-2.12V3C0,2.2,.32,1.44,.88,.88s1.33-.88,2.12-.88Zm0,39h3v-4H3v4Zm30,0H9V22h24v17Zm3,0h3v-4h-3v4Zm0-7h3v-5h-3v5Zm0-8h3v-5h-3v5Zm0-8h3v-5h-3v5Zm0-8h3V3h-3v5Zm-3-5H9V19h24V3ZM3,3h3v5H3V3Zm0,8h3v5H3v-5Zm0,8h3v5H3v-5Zm0,8h3v5H3v-5Z"/></svg>