<?xml version="1.0" encoding="UTF-8"?><svg id="logo" xmlns="http://www.w3.org/2000/svg" xmlns:xlink="http://www.w3.org/1999/xlink" viewBox="0 0 468 100.45"><defs><style>.cls-1{fill:url(#linear-gradient-2);}.cls-2{fill:#fff;}.cls-3{fill:url(#linear-gradient);}</style><linearGradient id="linear-gradient" x1="20.48" y1="20.14" x2="116.33" y2="117.09" gradientUnits="userSpaceOnUse"><stop offset=".04" stop-color="#18479d"/><stop offset=".25" stop-color="#184a9f"/><stop offset=".44" stop-color="#1a56a7"/><stop offset=".63" stop-color="#1d69b4"/><stop offset=".81" stop-color="#2283c7"/><stop offset=".99" stop-color="#27a6de"/><stop offset="1" stop-color="#28a8e0"/></linearGradient><linearGradient id="linear-gradient-2" x1="89.63" y1="64.3" x2="-5.3" y2="9.49" gradientUnits="userSpaceOnUse"><stop offset="0" stop-color="#18469c"/><stop offset=".23" stop-color="#18499e"/><stop offset=".43" stop-color="#1a53a5"/><stop offset=".61" stop-color="#1d65b1"/><stop offset=".78" stop-color="#217dc2"/><stop offset=".95" stop-color="#269cd8"/><stop offset="1" stop-color="#28a8e0"/></linearGradient></defs><g id="hybrid"><g id="sd_icon"><polygon id="d_shape" class="cls-3" points="82.99 17.66 82.79 17.66 17.46 17.66 17.46 31.78 86.32 31.78 86.32 86.52 17.46 86.52 17.46 100.45 100.45 100.45 100.45 82.99 100.45 82.79 100.45 17.66 82.99 17.66"/><polygon id="s_shape" class="cls-1" points="82.79 14.13 82.79 0 0 0 0 17.66 0 35.31 0 52.97 65.33 52.97 65.33 65.33 17.46 65.33 17.46 82.99 82.79 82.99 82.79 65.33 82.79 52.97 82.79 35.31 13.93 35.31 13.93 14.13 82.79 14.13"/></g><g id="shelfdat"><path id="t" class="cls-2" d="M468,79.58c-2.74,1.97-6.76,2.91-10.87,2.91-10.87,0-17.2-5.56-17.2-16.52v-18.91h-7.1v-10.27h7.1v-11.21h13.35v11.21h11.47v10.27h-11.47v18.74c0,3.94,2.14,6.08,5.73,6.08,1.97,0,3.94-.6,5.39-1.71l3.59,9.41Z"/><path id="a" class="cls-2" d="M431.72,55.53v26.27h-12.49v-5.73c-2.48,4.19-7.27,6.42-14.04,6.42-10.78,0-17.2-5.99-17.2-13.95s5.73-13.78,19.77-13.78h10.61c0-5.73-3.42-9.07-10.61-9.07-4.88,0-9.93,1.63-13.26,4.28l-4.79-9.33c5.05-3.59,12.49-5.56,19.85-5.56,14.04,0,22.16,6.5,22.16,20.45Zm-13.35,11.72v-4.71h-9.16c-6.25,0-8.22,2.31-8.22,5.39,0,3.34,2.82,5.56,7.53,5.56,4.45,0,8.3-2.05,9.84-6.25Z"/><path id="d" class="cls-2" d="M326.71,21.9h27.22c19.6,0,33.03,11.81,33.03,29.95s-13.44,29.95-33.03,29.95h-27.22V21.9Zm26.53,48.52c11.9,0,19.68-7.1,19.68-18.57s-7.79-18.57-19.68-18.57h-12.67v37.14h12.67Z"/><path id="f" class="cls-2" d="M308.49,36.79h11.81v10.27h-11.47v34.75h-13.35V47.06h-7.1v-10.27h7.1v-2.05c0-10.36,6.33-17.12,17.8-17.12,3.77,0,7.7,.77,10.18,2.48l-3.51,9.67c-1.45-1.03-3.34-1.63-5.39-1.63-3.94,0-6.08,2.14-6.08,6.68v1.97Z"/><path id="l" class="cls-2" d="M269.72,18.3h13.35v63.5h-13.35V18.3Z"/><path id="e" class="cls-2" d="M266.04,62.55h-34.83c1.28,5.73,6.16,9.24,13.18,9.24,4.88,0,8.39-1.45,11.55-4.45l7.1,7.7c-4.28,4.88-10.7,7.45-19,7.45-15.92,0-26.27-10.01-26.27-23.71s10.53-23.71,24.56-23.71,23.96,9.07,23.96,23.88c0,1.03-.17,2.48-.26,3.59Zm-35-7.79h22.68c-.94-5.82-5.31-9.58-11.3-9.58s-10.44,3.68-11.38,9.58Z"/><path id="h" class="cls-2" d="M214.1,55.44v26.36h-13.35v-24.3c0-7.45-3.42-10.87-9.33-10.87-6.42,0-11.04,3.94-11.04,12.41v22.76h-13.35V18.3h13.35v22.25c3.59-3.59,8.73-5.48,14.63-5.48,10.87,0,19.08,6.33,19.08,20.37Z"/><path id="s" class="cls-2" d="M114.15,75.9l4.71-10.44c5.05,3.68,12.58,6.25,19.77,6.25,8.22,0,11.55-2.74,11.55-6.42,0-11.21-34.83-3.51-34.83-25.76,0-10.18,8.22-18.66,25.25-18.66,7.53,0,15.23,1.8,20.8,5.31l-4.28,10.53c-5.56-3.17-11.3-4.71-16.6-4.71-8.22,0-11.38,3.08-11.38,6.85,0,11.04,34.83,3.42,34.83,25.42,0,10.01-8.3,18.57-25.42,18.57-9.5,0-19.08-2.82-24.39-6.93Z"/></g></g></svg>