<?xml version="1.0" encoding="UTF-8"?><svg id="Layer_1" xmlns="http://www.w3.org/2000/svg" viewBox="0 0 36 36"><defs><style>.cls-1{fill:#9a9a9a;}</style></defs><path class="cls-1" d="M20,24h2.5v-4.5l4.2,4.5h3.3l-5.6-6,5.6-6h-3.3l-4.2,4.5v-4.5h-2.5v12Zm-7.5,0h2.5v-3.15h2v-2.5h-2v-6.35h-2.5v6.35h-3.2v-6.35h-2.5v8.85h5.7v3.15ZM3,36c-.8,0-1.5-.3-2.1-.9-.6-.6-.9-1.3-.9-2.1V3C0,2.2,.3,1.5,.9,.9c.6-.6,1.3-.9,2.1-.9h30c.8,0,1.5,.3,2.1,.9,.6,.6,.9,1.3,.9,2.1v30c0,.8-.3,1.5-.9,2.1-.6,.6-1.3,.9-2.1,.9H3Zm0-3h30V3H3v30ZM3,3v0Z"/></svg>