<?xml version="1.0" encoding="UTF-8"?><svg id="Layer_1" xmlns="http://www.w3.org/2000/svg" viewBox="0 0 40 32"><defs><style>.cls-1{fill:#9a9a9a;}</style></defs><path class="cls-1" d="M8,22.15h2.5v-4.45h5v4.45h2.5V9.85h-2.5v5.35h-5v-5.35h-2.5v12.3Zm14,0h7.5c.67,0,1.25-.25,1.75-.75s.75-1.08,.75-1.75v-7.3c0-.67-.25-1.25-.75-1.75s-1.08-.75-1.75-.75h-7.5v12.3Zm2.5-2.5v-7.3h5v7.3h-5ZM3,32c-.8,0-1.5-.3-2.1-.9-.6-.6-.9-1.3-.9-2.1V3C0,2.2,.3,1.5,.9,.9c.6-.6,1.3-.9,2.1-.9H37c.8,0,1.5,.3,2.1,.9,.6,.6,.9,1.3,.9,2.1V29c0,.8-.3,1.5-.9,2.1-.6,.6-1.3,.9-2.1,.9H3Zm0-3H37V3H3V29Zm0,0v0Z"/></svg>