<?xml version="1.0" encoding="UTF-8"?><svg id="Layer_1" xmlns="http://www.w3.org/2000/svg" viewBox="0 0 40 40"><defs><style>.cls-1{fill:#fff;}</style></defs><path class="cls-1" d="M21.5,25.1h3v-6.6h6.6v-3h-6.6v-6.6h-3v6.6h-6.6v3h6.6v6.6Zm-12.5,8.9c-.8,0-1.5-.3-2.1-.9-.6-.6-.9-1.3-.9-2.1V3c0-.8,.3-1.5,.9-2.1,.6-.6,1.3-.9,2.1-.9h28c.8,0,1.5,.3,2.1,.9,.6,.6,.9,1.3,.9,2.1V31c0,.8-.3,1.5-.9,2.1-.6,.6-1.3,.9-2.1,.9H9Zm0-3h28V3H9V31Zm-6,9c-.8,0-1.5-.3-2.1-.9-.6-.6-.9-1.3-.9-2.1V6H3v31h31v3H3ZM9,3v0Z"/></svg>