<?xml version="1.0" encoding="UTF-8"?><svg id="Layer_1" xmlns="http://www.w3.org/2000/svg" viewBox="0 0 40 32"><defs><style>.cls-1{fill:#9a9a9a;}</style></defs><path class="cls-1" d="M3,32c-.8,0-1.5-.3-2.1-.9-.6-.6-.9-1.3-.9-2.1V3C0,2.2,.3,1.5,.9,.9c.6-.6,1.3-.9,2.1-.9H37c.8,0,1.5,.3,2.1,.9,.6,.6,.9,1.3,.9,2.1V29c0,.8-.3,1.5-.9,2.1-.6,.6-1.3,.9-2.1,.9H3Zm0-3H37V3H3V29Zm6.65-6.85h6.35c.47,0,.92-.16,1.35-.48,.43-.32,.65-.71,.65-1.17v-3.65c0-.47-.22-.86-.65-1.17-.43-.32-.88-.47-1.35-.48h-5.5v-2.85h5v.85h2.5v-1.65c0-.47-.22-.87-.65-1.2-.43-.33-.88-.5-1.35-.5h-6.35c-.47,0-.86,.17-1.18,.5-.32,.33-.48,.73-.48,1.2v3.65c0,.47,.16,.86,.48,1.17,.32,.32,.71,.48,1.18,.48h5.85v2.8h-5v-.8h-2.5v1.65c0,.47,.16,.86,.48,1.17,.32,.32,.71,.48,1.17,.48Zm12.35,0h7.5c.67,0,1.25-.25,1.75-.75s.75-1.08,.75-1.75v-7.3c0-.67-.25-1.25-.75-1.75s-1.08-.75-1.75-.75h-7.5v12.3Zm2.5-2.5v-7.3h5v7.3h-5ZM3,29v0Z"/></svg>