<?xml version="1.0" encoding="UTF-8"?><svg id="Layer_1" xmlns="http://www.w3.org/2000/svg" viewBox="0 0 24 24"><defs><style>.cls-1{fill:none;}.cls-2{fill:#9a9a9a;}</style></defs><path class="cls-1" d="M0,0H24V24H0V0Z"/><path class="cls-2" d="M15.5,14h-.79l-.28-.27c.98-1.14,1.57-2.62,1.57-4.23,0-3.59-2.91-6.5-6.5-6.5S3,5.91,3,9.5s2.91,6.5,6.5,6.5c1.61,0,3.09-.59,4.23-1.57l.27,.28v.79l5,4.99,1.49-1.49-4.99-5Zm-6,0c-2.49,0-4.5-2.01-4.5-4.5s2.01-4.5,4.5-4.5,4.5,2.01,4.5,4.5-2.01,4.5-4.5,4.5Z"/></svg>