<?xml version="1.0" encoding="UTF-8"?><svg id="Layer_3" xmlns="http://www.w3.org/2000/svg" viewBox="0 0 512 365.04"><defs><style>.cls-1{fill:#4f4f4f;}.cls-2{fill:#383838;}.cls-3{fill:#6abd45;}.cls-4{fill:#6d6d6d;}</style></defs><rect id="body" class="cls-2" y="33.19" width="512" height="331.85"/><rect id="header" class="cls-1" width="512" height="33.19"/><circle id="close" class="cls-4" cx="490.58" cy="16.59" r="7.11"/><circle id="max" class="cls-4" cx="466.88" cy="16.59" r="7.11"/><circle id="min" class="cls-4" cx="443.18" cy="16.59" r="7.11"/><g id="text"><path class="cls-3" d="M45.78,206.8l28.89-18.1v-.44l-28.89-18.1v-14.5l42.09,27.26v11.12l-42.09,27.26v-14.5Z"/><path class="cls-3" d="M92.01,230.57h52.34v11.99h-52.34v-11.99Z"/><path class="cls-3" d="M150.78,197.64c0-17.77,13.63-28.35,28.13-28.35,16.68,0,25.51,11.23,25.51,25.95,0,2.94-.55,5.89-.76,7.2h-36.85c1.53,7.85,7.31,11.34,16.14,11.34,4.91,0,9.16-1.31,13.96-3.82l5.34,9.7c-6.22,3.92-14.28,6.32-21.48,6.32-16.9,0-29.98-10.36-29.98-28.35Zm16.25-6h23.12c-.76-6.65-4.47-10.14-10.69-10.14s-10.8,3.38-12.43,10.14Z"/><path class="cls-3" d="M222.85,170.6h13.08l1.31,11.77h.33c5.34-8.83,13.3-13.08,21.92-13.08,4.8,0,7.3,.76,10.47,2.18l-3.27,13.41c-3.38-.98-5.56-1.53-9.59-1.53-6.65,0-13.63,3.49-18.21,13.19v28.13h-16.03v-54.08Z"/><path class="cls-3" d="M288.28,170.6h13.08l1.31,11.77h.33c5.34-8.83,13.3-13.08,21.92-13.08,4.8,0,7.3,.76,10.47,2.18l-3.27,13.41c-3.38-.98-5.56-1.53-9.59-1.53-6.65,0-13.63,3.49-18.21,13.19v28.13h-16.03v-54.08Z"/><path class="cls-3" d="M346.17,197.64c0-17.99,13.3-28.35,27.58-28.35s27.58,10.36,27.58,28.35-13.3,28.35-27.58,28.35-27.58-10.36-27.58-28.35Zm38.71,0c0-9.38-3.71-15.37-11.12-15.37s-11.12,6-11.12,15.37,3.71,15.37,11.12,15.37,11.12-6,11.12-15.37Z"/><path class="cls-3" d="M419.12,170.6h13.08l1.31,11.77h.33c5.34-8.83,13.3-13.08,21.92-13.08,4.8,0,7.3,.76,10.47,2.18l-3.27,13.41c-3.38-.98-5.56-1.53-9.59-1.53-6.65,0-13.63,3.49-18.21,13.19v28.13h-16.03v-54.08Z"/></g></svg>